<svg id="Layer_1" enable-background="new 0 0 100 100" viewBox="0 0 100 100" xmlns="http://www.w3.org/2000/svg" xmlns:xlink="http://www.w3.org/1999/xlink"><linearGradient id="lg1"><stop offset="0" stop-color="#97e0ff"/><stop offset="1" stop-color="#1075ff"/></linearGradient><linearGradient id="SVGID_1_" gradientUnits="userSpaceOnUse" x1="5.778" x2="97.795" xlink:href="#lg1" y1="-10.17" y2="90.67"/><linearGradient id="SVGID_00000004509664509460977340000018123286333928620223_" gradientUnits="userSpaceOnUse" x1="-9.604" x2="82.413" xlink:href="#lg1" y1="3.866" y2="104.707"/><linearGradient id="SVGID_00000182511345989272223570000008762571201924224145_" gradientUnits="userSpaceOnUse" x1="-7.996" x2="84.02" xlink:href="#lg1" y1="2.399" y2="103.239"/><linearGradient id="SVGID_00000070801556392042144700000015210564137479570366_" gradientUnits="userSpaceOnUse" x1="-22.42" x2="69.597" xlink:href="#lg1" y1="15.561" y2="116.401"/><linearGradient id="SVGID_00000168076861231684002880000016525129379407357372_" gradientUnits="userSpaceOnUse" x1="23.491" x2="115.508" xlink:href="#lg1" y1="-26.333" y2="74.507"/><linearGradient id="SVGID_00000040564358485886730170000004178541207126364815_" gradientUnits="userSpaceOnUse" x1="12.358" x2="104.375" xlink:href="#lg1" y1="-16.174" y2="84.666"/><g clip-rule="evenodd" fill-rule="evenodd"><path d="m50.0002213 51.4738731c7.260231 0 13.181942-5.921772 13.181942-13.1819382 0-7.2605247-5.9217796-13.1821556-13.181942-13.1821556-7.2605972 0-13.1821556 5.9216309-13.1821556 13.1821556-.0000001 7.2601624 5.9215583 13.1819382 13.1821556 13.1819382z" fill="url(#SVGID_1_)"/><path d="m64.0527039 57.1299706c-3.6070366-2.46175-8.5761948-3.9841652-14.0526237-3.9841652s-10.4455795 1.5224152-14.0524826 3.9841652c-3.685051 2.5151863-5.9643517 6.013855-5.9643517 9.9000816v6.7574615c0 1.1382828.4614162 2.1689911 1.2073727 2.9149475.7459564.7460251 1.7766628 1.2075119 2.9150257 1.2075119h31.789093c1.1382904 0 2.1687851-.4617081 2.9149475-1.2075119.7682495-.7680969 1.219162-1.837738 1.2072372-2.9270248v-6.7453842c-.0000153-3.8862953-2.2794495-7.3848953-5.9642181-9.9000816z" fill="url(#SVGID_00000004509664509460977340000018123286333928620223_)"/><path d="m21.1470852 46.5843735c6.7455254 0 12.2471752-5.5017166 12.2471752-12.247242 0-6.7453804-5.5016499-12.2471027-12.2471752-12.2471027-6.7454567 0-12.2470331 5.5017166-12.2470331 12.2471027.0000715 6.7454491 5.5015764 12.247242 12.2470331 12.247242z" fill="url(#SVGID_00000182511345989272223570000008762571201924224145_)"/><path d="m34.3391113 51.8748512c.9640198.6715088.9109001 2.1009178-.0601883 2.7621574-.0063095.0042953-.0126152.0085945-.0189133.0128937-4.6900024 3.2001953-7.2800293 7.6000977-7.2800293 12.380127v2.4857559c0 .924614-.7495441 1.6741562-1.6741524 1.6741562h-18.9258241c-1.0700078 0-2.0399785-.4299316-2.7399905-1.1298828-.710022-.7001953-1.1400146-1.6699219-1.1400146-2.7399902v-6.2800293c0-3.630127 2.1300046-6.8999023 5.5599976-9.2399902 3.3599854-2.2900391 7.9899912-3.7102051 13.0900278-3.7102051 3.8399658 0 7.4799805.8100586 10.5099487 2.2402344.9595454.4552879 1.8573687.972351 2.6791384 1.544773z" fill="url(#SVGID_00000070801556392042144700000015210564137479570366_)"/><path d="m78.8531418 46.5843735c6.7453842 0 12.2471085-5.5017166 12.2471085-12.247242 0-6.7453804-5.5017242-12.2471027-12.2471085-12.2471027-6.7455978 0-12.2472458 5.5017166-12.2472458 12.2471027-.0000687 6.7454491 5.5016479 12.247242 12.2472458 12.247242z" fill="url(#SVGID_00000168076861231684002880000016525129379407357372_)"/><path d="m97.5 61.0400391v6.2800293c0 1.0700684-.4299927 2.0397949-1.1400146 2.7399902-.7000122.6999512-1.6699829 1.1398926-2.7399902 1.1398926h-18.9258195c-.924614 0-1.6741562-.7495422-1.6741562-1.6741562v-2.4957657c0-4.7800293-2.5900269-9.1799316-7.2800293-12.380127-.0063019-.0042992-.0126038-.0085983-.0189133-.0128937-.9710922-.6612396-1.0242081-2.0906487-.0601883-2.7621574.8217697-.572422 1.7195969-1.0894852 2.6791382-1.5447731 3.0299683-1.4301758 6.6699829-2.2402344 10.5099487-2.2402344 5.1000366 0 9.7300415 1.420166 13.0900269 3.7102051 3.4299927 2.3400879 5.5599976 5.6098633 5.5599976 9.2399903z" fill="url(#SVGID_00000040564358485886730170000004178541207126364815_)"/></g></svg>