<svg width="18" height="18" viewBox="0 0 18 18" fill="none" xmlns="http://www.w3.org/2000/svg">
<path d="M15.6483 10.7555C15.5059 10.8522 15.3396 10.9093 15.167 10.9207C14.9944 10.9321 14.8219 10.8975 14.6676 10.8204C14.3055 10.6188 14.1103 10.146 14.1103 9.50174V7.52723C14.1103 6.57937 13.7293 5.90498 13.092 5.7219C12.0149 5.41136 11.2106 6.71147 10.9002 7.20046L8.9953 10.2387V6.53071C8.97413 5.67555 8.69193 5.16338 8.15809 5.01043C7.80533 4.90846 7.2762 4.95017 6.76117 5.72422L2.50222 12.4612C1.93555 11.3928 1.64173 10.2044 1.6462 8.99884C1.6462 4.93859 4.93859 1.63615 8.9953 1.63615C13.052 1.63615 16.3562 4.93859 16.3562 8.99884V9.0197C16.3562 9.0197 16.3562 9.0336 16.3562 9.04056C16.3961 9.82619 16.1374 10.4519 15.6506 10.7555H15.6483ZM18 9.00116V8.96176C17.9671 4.0139 13.9409 0 8.9953 0C4.04965 0 0 4.03708 0 8.99884C0 13.9606 4.03554 18 8.9953 18C11.2701 17.9999 13.4583 17.1407 15.1097 15.5991C15.27 15.4502 15.3644 15.2452 15.3723 15.0283C15.3802 14.8114 15.3011 14.6001 15.1521 14.4403C15.0808 14.3626 14.9946 14.2995 14.8984 14.2547C14.8023 14.21 14.6981 14.1844 14.5919 14.1794C14.4856 14.1745 14.3795 14.1902 14.2795 14.2259C14.1795 14.2615 14.0876 14.3163 14.0091 14.387C13.2981 15.0517 12.4582 15.5679 11.5397 15.9046C10.6212 16.2414 9.64308 16.3918 8.66414 16.3468C7.68519 16.3017 6.72557 16.0622 5.84289 15.6426C4.96021 15.223 4.17267 14.632 3.52757 13.905L7.36086 7.83314V10.635C7.36086 11.9815 7.88999 12.4171 8.33447 12.5446C8.77894 12.6721 9.45858 12.584 10.1712 11.4438L12.2877 8.06721C12.3535 7.95829 12.417 7.86559 12.4735 7.78447V9.50174C12.4735 10.7601 12.9862 11.7659 13.8845 12.2619C14.293 12.4792 14.7533 12.5842 15.2171 12.5658C15.681 12.5475 16.1313 12.4065 16.5208 12.1576C17.5085 11.5249 18.047 10.3801 17.9906 9.00116H18Z" fill="#3861FA"/>
</svg>
